<?xml version="1.0" encoding="utf-8"?>
<!-- Generator: Adobe Illustrator 18.0.0, SVG Export Plug-In . SVG Version: 6.00 Build 0)  -->
<!DOCTYPE svg PUBLIC "-//W3C//DTD SVG 1.1//EN" "http://www.w3.org/Graphics/SVG/1.1/DTD/svg11.dtd">
<svg version="1.1" id="Capa_1" xmlns="http://www.w3.org/2000/svg" xmlns:xlink="http://www.w3.org/1999/xlink" x="0px" y="0px"
	 viewBox="0 0 300.4 92.8" enable-background="new 0 0 300.4 92.8" xml:space="preserve">
<g>
	<g>
		<path fill-rule="evenodd" clip-rule="evenodd" fill="#6F7071" d="M195.5,38.5c-0.4-0.2-1-0.3-1.6-0.3c-1.9,0-2.9,1.3-2.9,3.1
			c0,1.8,1,3,2.9,3c0.4,0,1.2-0.1,1.6-0.3l0.1,0.6c-0.4,0.3-1.2,0.4-1.6,0.4c-2.3,0-3.6-1.6-3.6-3.7c0-2.2,1.4-3.7,3.6-3.7
			c0.4,0,1.3,0.1,1.6,0.2L195.5,38.5z"/>
		<path fill-rule="evenodd" clip-rule="evenodd" fill="#6F7071" d="M199.9,37.7h0.4l2.9,7.2h-0.7l-0.8-1.9h-1.8v-0.6h1.6l-1.6-3.9
			V37.7L199.9,37.7z M199.9,37.3L199.9,37.3v-0.7l0.4-0.6h0.8L199.9,37.3L199.9,37.3z M199.6,37.7l-3,7.2h0.7l0.8-1.9h1.8v-0.6h-1.6
			l1.6-3.9v-0.7H199.6L199.6,37.7L199.6,37.7z M199.9,36.5l-0.6,0.9h0.5l0.1-0.1V36.5L199.9,36.5z"/>
		<polygon fill-rule="evenodd" clip-rule="evenodd" fill="#6F7071" points="204.2,37.7 205.3,37.7 207.9,43.9 210.6,37.7 
			211.5,37.7 211.5,44.8 210.9,44.8 210.9,38.4 208.2,44.8 207.6,44.8 204.9,38.4 204.9,44.8 204.2,44.8 		"/>
		<path fill-rule="evenodd" clip-rule="evenodd" fill="#6F7071" d="M215.8,37.7h0.4l2.9,7.2h-0.7l-0.8-1.9h-1.8v-0.6h1.6l-1.6-3.9
			V37.7L215.8,37.7z M215.5,37.7l-3,7.2h0.7l0.8-1.9h1.8v-0.6h-1.6l1.6-3.9v-0.7H215.5L215.5,37.7z"/>
		<path fill-rule="evenodd" clip-rule="evenodd" fill="#6F7071" d="M222.1,37.7c1.2,0,2,0.5,2,1.8c0,1-0.7,1.6-1.6,1.7
			c0.6,0.1,0.7,0.4,1,0.9l1.2,2.7h-0.7l-1-2.4c-0.3-0.5-0.4-0.7-0.7-0.9v-0.7c0.7-0.1,1.3-0.5,1.3-1.3c0-0.9-0.5-1.1-1.3-1.2V37.7
			L222.1,37.7z M220.1,37.7v7.2h0.7v-3.4h0.6c0.3,0,0.5,0.1,0.7,0.1v-0.7c-0.1,0-0.4,0-0.5,0h-0.7v-2.5h0.7c0.1,0,0.4,0,0.5,0v-0.6
			l-0.1-0.1H220.1L220.1,37.7z"/>
		<path fill-rule="evenodd" clip-rule="evenodd" fill="#6F7071" d="M228.3,37.7h0.4l2.8,7.2h-0.7l-0.7-1.9h-1.8v-0.6h1.6l-1.6-3.9
			V37.7L228.3,37.7z M228,37.7l-2.9,7.2h0.7l0.7-1.9h1.9v-0.6h-1.6l1.6-3.9v-0.7H228L228,37.7z"/>
		<path fill-rule="evenodd" clip-rule="evenodd" fill="#6F7071" d="M240.6,42.3c0,2.1-1.6,2.7-2.6,2.7c-1,0-2.6-0.5-2.6-2.7v-4.7
			h0.7v4.7c0,1.2,0.7,2,1.9,2c1.2,0,1.8-0.8,1.8-2v-4.7h0.7V42.3z"/>
		<path fill-rule="evenodd" clip-rule="evenodd" fill="#6F7071" d="M244.2,37.7c1.3,0,2,0.5,2,1.8c0,1-0.7,1.6-1.6,1.7
			c0.5,0.1,0.7,0.4,0.9,0.9l1.2,2.7H246l-1-2.4c-0.2-0.5-0.4-0.7-0.7-0.9v-0.7c0.7-0.1,1.3-0.5,1.3-1.3c0-0.9-0.5-1.1-1.3-1.2V37.7
			L244.2,37.7z M242.3,37.7v7.2h0.7v-3.4h0.6c0.3,0,0.5,0.1,0.7,0.1v-0.7c-0.1,0-0.3,0-0.5,0H243v-2.5h0.7c0.2,0,0.4,0,0.5,0v-0.6
			l-0.1-0.1H242.3L242.3,37.7z"/>
		<path fill-rule="evenodd" clip-rule="evenodd" fill="#6F7071" d="M253.1,42.3c0,2.1-1.6,2.7-2.6,2.7c-1.1,0-2.6-0.5-2.6-2.7v-4.7
			h0.7v4.7c0,1.2,0.7,2,1.9,2c1.2,0,1.8-0.8,1.8-2v-4.7h0.7V42.3z"/>
		<path fill-rule="evenodd" clip-rule="evenodd" fill="#6F7071" d="M259.6,41.6H258V41h2.4v3.6c-0.7,0.3-1.4,0.4-2.2,0.4
			c-2.2,0-3.6-1.6-3.6-3.7c0-2.2,1.4-3.7,3.6-3.7c0.5,0,1.4,0.1,1.9,0.3l-0.1,0.7c-0.6-0.3-1.3-0.4-1.8-0.4c-1.8,0-2.9,1.3-2.9,3.1
			c0,1.8,1,3,2.9,3c0.4,0,1.2,0,1.5-0.2V41.6z"/>
		<path fill-rule="evenodd" clip-rule="evenodd" fill="#6F7071" d="M267.2,42.3c0,2.1-1.6,2.7-2.6,2.7c-1,0-2.6-0.5-2.6-2.7v-4.7
			h0.7v4.7c0,1.2,0.7,2,1.9,2c1.3,0,1.9-0.8,1.9-2v-4.7h0.7V42.3z"/>
		<path fill-rule="evenodd" clip-rule="evenodd" fill="#6F7071" d="M271.5,37.7h0.4l2.9,7.2H274l-0.8-1.9h-1.8v-0.6h1.6l-1.6-3.9
			V37.7L271.5,37.7z M271.2,37.7l-3,7.2h0.7l0.8-1.9h1.8v-0.6h-1.6l1.6-3.9v-0.7H271.2L271.2,37.7z"/>
		<polygon fill-rule="evenodd" clip-rule="evenodd" fill="#6F7071" points="276.8,41.8 274.1,37.7 274.9,37.7 277.2,41.2 
			279.4,37.7 280.1,37.7 277.5,41.8 277.5,44.8 276.8,44.8 		"/>
		<path fill-rule="evenodd" clip-rule="evenodd" fill="#6F7071" d="M282.8,37.7h0.4l2.9,7.2h-0.7l-0.8-1.9h-1.8v-0.6h1.6l-1.6-3.9
			V37.7L282.8,37.7z M282.5,37.7l-3,7.2h0.7l0.8-1.9h1.8v-0.6h-1.6l1.6-3.9v-0.7H282.5L282.5,37.7z"/>
		<path fill-rule="evenodd" clip-rule="evenodd" fill="#6F7071" d="M292.5,37.7c1.8,0.4,2.7,1.7,2.7,3.6c0,2-1,3-2.7,3.4V44
			c1.2-0.3,1.9-1.2,1.9-2.8c0-1.7-0.8-2.5-1.9-2.8V37.7L292.5,37.7z M289.9,37.7v7.2h1.3c0.5,0,1-0.1,1.4-0.1V44
			c-0.4,0.1-0.9,0.2-1.4,0.2h-0.6v-5.9h1c0.4,0,0.7,0,1,0.1v-0.7c-0.3,0-0.6-0.1-0.9-0.1H289.9L289.9,37.7z"/>
		<polygon fill-rule="evenodd" clip-rule="evenodd" fill="#6F7071" points="296.8,37.7 300.2,37.7 300.2,38.3 297.4,38.3 
			297.4,40.8 300.1,40.8 300.1,41.4 297.4,41.4 297.4,44.2 300.4,44.2 300.4,44.8 296.8,44.8 		"/>
		<polygon fill-rule="evenodd" clip-rule="evenodd" fill="#6F7071" points="191.9,50.5 189.9,50.5 189.9,49.9 194.7,49.9 
			194.7,50.5 192.7,50.5 192.7,57.1 191.9,57.1 		"/>
		<polygon fill-rule="evenodd" clip-rule="evenodd" fill="#6F7071" points="195.7,49.9 199.2,49.9 199.2,50.5 196.4,50.5 
			196.4,53.1 199.1,53.1 199.1,53.7 196.4,53.7 196.4,56.4 199.3,56.4 199.3,57.1 195.7,57.1 		"/>
		<path fill-rule="evenodd" clip-rule="evenodd" fill="#6F7071" d="M205.7,50.8c-0.4-0.2-1-0.3-1.6-0.3c-1.8,0-2.9,1.3-2.9,3
			c0,1.8,1,3.1,2.9,3.1c0.4,0,1.2-0.1,1.6-0.3l0.1,0.6c-0.4,0.2-1.2,0.3-1.6,0.3c-2.3,0-3.6-1.5-3.6-3.7c0-2.1,1.4-3.6,3.6-3.6
			c0.4,0,1.3,0,1.6,0.2L205.7,50.8z"/>
		<polygon fill-rule="evenodd" clip-rule="evenodd" fill="#6F7071" points="207.5,49.9 208.4,49.9 212,56.2 212,49.9 212.8,49.9 
			212.8,57.1 211.8,57.1 208.3,50.9 208.3,57.1 207.5,57.1 		"/>
		<path fill-rule="evenodd" clip-rule="evenodd" fill="#6F7071" d="M217.2,49.9c2.1,0,3.2,1.7,3.2,3.6c0,2.2-1.1,3.7-3.2,3.7v-0.6
			c1.7,0,2.4-1.6,2.4-3.1c0-1.5-0.7-3-2.4-3V49.9L217.2,49.9z M217.2,57.2v-0.6c-1.6,0-2.4-1.6-2.4-3.1c0-1.5,0.7-3,2.4-3v-0.6
			c-2.1,0-3.1,1.7-3.1,3.6C214.1,55.7,215.2,57.2,217.2,57.2L217.2,57.2z"/>
		<polygon fill-rule="evenodd" clip-rule="evenodd" fill="#6F7071" points="221.7,49.9 222.5,49.9 222.5,56.4 225.3,56.4 
			225.3,57.1 221.7,57.1 		"/>
		<path fill-rule="evenodd" clip-rule="evenodd" fill="#6F7071" d="M229.1,49.9c2.1,0,3.2,1.7,3.2,3.6c0,2.2-1.1,3.7-3.2,3.7v-0.6
			c1.7,0,2.4-1.6,2.4-3.1c0-1.5-0.7-3-2.4-3V49.9L229.1,49.9z M229.1,57.2v-0.6c-1.6,0-2.4-1.6-2.4-3.1c0-1.5,0.7-3,2.4-3v-0.6
			c-2.1,0-3.1,1.7-3.1,3.6C226,55.7,227.1,57.2,229.1,57.2L229.1,57.2z"/>
		<path fill-rule="evenodd" clip-rule="evenodd" fill="#6F7071" d="M238.6,53.9H237v-0.7h2.4v3.6c-0.7,0.4-1.5,0.4-2.2,0.4
			c-2.3,0-3.6-1.5-3.6-3.7c0-2.1,1.4-3.6,3.6-3.6c0.5,0,1.4,0.1,1.8,0.3l-0.1,0.7c-0.5-0.3-1.2-0.4-1.8-0.4c-1.8,0-2.9,1.3-2.9,3
			c0,1.8,1,3.1,2.9,3.1c0.4,0,1.2-0.1,1.5-0.3V53.9z"/>
		<path fill-rule="evenodd" clip-rule="evenodd" fill="#6F7071" d="M241.7,48.2h0.8l-1.3,1.5h-0.5L241.7,48.2L241.7,48.2z
			 M241.1,49.9L241.1,49.9h0.7v7.2h-0.7V49.9z"/>
		<path fill-rule="evenodd" clip-rule="evenodd" fill="#6F7071" d="M245.9,49.9h0.5l2.8,7.2h-0.7l-0.7-1.9h-1.8v-0.7h1.6l-1.5-3.9
			h-0.1V49.9L245.9,49.9z M245.6,49.9l-3,7.2h0.7l0.7-1.9h1.8v-0.7h-1.5l1.5-3.9v-0.7H245.6L245.6,49.9z"/>
		<path fill-rule="evenodd" clip-rule="evenodd" fill="#6F7071" d="M250,56.2c0.4,0.3,0.9,0.4,1.6,0.4c0.9,0,1.6-0.4,1.6-1.5
			c0-1.4-3.3-1.6-3.3-3.4c0-1.2,1-1.9,2.2-1.9c0.4,0,0.9,0,1.4,0.2l-0.1,0.6c-0.4-0.1-0.8-0.2-1.3-0.2c-0.7,0-1.6,0.3-1.6,1.2
			c0,1.5,3.3,1.5,3.3,3.6c0,1.4-1.2,2-2.3,2c-0.7,0-1.3-0.1-1.6-0.3L250,56.2z"/>
		<path fill-rule="evenodd" clip-rule="evenodd" fill="#6F7071" d="M260.7,50c1.9,0.3,2.7,1.7,2.7,3.5c0,2.1-1,3.1-2.7,3.5v-0.7
			c1.3-0.3,2-1.2,2-2.8c0-1.8-0.8-2.6-2-2.8V50L260.7,50z M258.1,49.9v7.2h1.3c0.5,0,1-0.1,1.4-0.1v-0.7c-0.4,0.1-0.9,0.1-1.3,0.1
			h-0.6v-5.9h1c0.3,0,0.6,0.1,0.9,0.1V50c-0.3-0.1-0.6-0.1-0.9-0.1H258.1L258.1,49.9z"/>
		<polygon fill-rule="evenodd" clip-rule="evenodd" fill="#6F7071" points="264.9,49.9 268.4,49.9 268.4,50.5 265.7,50.5 
			265.7,53.1 268.3,53.1 268.3,53.7 265.7,53.7 265.7,56.4 268.6,56.4 268.6,57.1 264.9,57.1 		"/>
		<polygon fill-rule="evenodd" clip-rule="evenodd" fill="#6F7071" points="190.5,62.2 191.3,62.2 191.3,68.7 194.1,68.7 
			194.1,69.3 190.5,69.3 		"/>
		<path fill-rule="evenodd" clip-rule="evenodd" fill="#6F7071" d="M197.7,62.2h0.4l2.8,7.1h-0.7l-0.7-1.9h-1.8v-0.6h1.5l-1.5-3.9
			V62.2L197.7,62.2z M197.3,62.2l-3,7.1h0.7l0.7-1.9h1.8v-0.6h-1.6l1.6-3.9v-0.7H197.3L197.3,62.2z"/>
		<rect x="204.7" y="62.2" fill-rule="evenodd" clip-rule="evenodd" fill="#6F7071" width="0.7" height="7.1"/>
		<polygon fill-rule="evenodd" clip-rule="evenodd" fill="#6F7071" points="206.9,62.2 207.8,62.2 211.5,68.5 211.5,68.5 
			211.5,62.2 212.2,62.2 212.2,69.3 211.2,69.3 207.7,63.2 207.7,69.3 206.9,69.3 		"/>
		<polygon fill-rule="evenodd" clip-rule="evenodd" fill="#6F7071" points="213.8,62.2 217.2,62.2 217.2,62.8 214.5,62.8 
			214.5,65.4 217.1,65.4 217.1,66 214.5,66 214.5,69.3 213.8,69.3 		"/>
		<path fill-rule="evenodd" clip-rule="evenodd" fill="#6F7071" d="M221.2,62.1c2.1,0,3.2,1.8,3.1,3.7c0,2.2-1,3.7-3.1,3.7v-0.6
			c1.7,0,2.4-1.6,2.4-3.1c0-1.5-0.7-3.1-2.4-3.1V62.1L221.2,62.1z M221.2,62.7v-0.6c-2.1,0-3.2,1.8-3.1,3.7c0,2.2,1,3.7,3.1,3.7
			v-0.6c-1.7,0-2.4-1.6-2.4-3.1C218.8,64.3,219.5,62.7,221.2,62.7L221.2,62.7z"/>
		<path fill-rule="evenodd" clip-rule="evenodd" fill="#6F7071" d="M227.8,62.2c1.2,0,1.9,0.6,1.9,1.8c0,0.9-0.7,1.6-1.6,1.6
			c0.5,0.1,0.7,0.4,0.9,0.9l1.3,2.7h-0.8l-1-2.4c-0.2-0.6-0.4-0.8-0.7-0.9v-0.7c0.6-0.1,1.3-0.4,1.3-1.3c0-1-0.6-1.2-1.3-1.3V62.2
			L227.8,62.2z M225.8,62.2v7.1h0.7V66h0.6c0.3,0,0.5,0,0.7,0.1v-0.7c-0.2,0-0.4,0.1-0.5,0.1h-0.8v-2.6h0.7c0.2,0,0.4,0,0.6,0v-0.6
			h-0.1H225.8L225.8,62.2z"/>
		<polygon fill-rule="evenodd" clip-rule="evenodd" fill="#6F7071" points="231.4,62.2 232.5,62.2 235.1,68.5 237.8,62.2 
			238.8,62.2 238.8,69.3 238.1,69.3 238.1,62.9 235.5,69.3 234.8,69.3 232.2,62.9 232.2,69.3 231.4,69.3 		"/>
		<path fill-rule="evenodd" clip-rule="evenodd" fill="#6F7071" d="M243,62.2h0.4l2.9,7.1h-0.7l-0.8-1.9H243v-0.6h1.6l-1.6-3.9V62.2
			L243,62.2z M242.8,62.2l-3,7.1h0.7l0.8-1.9h1.8v-0.6h-1.6l1.6-3.9v-0.7H242.8L242.8,62.2z"/>
		<path fill-rule="evenodd" clip-rule="evenodd" fill="#6F7071" d="M252.2,63c-0.4-0.3-1-0.4-1.6-0.4c-1.8,0-2.9,1.3-2.9,3.1
			c0,1.8,1,3.1,2.9,3.1c0.4,0,1.2-0.1,1.6-0.4l0.1,0.7c-0.4,0.2-1.2,0.3-1.6,0.3c-2.2,0-3.6-1.5-3.6-3.7c0-2.1,1.4-3.7,3.6-3.7
			c0.4,0,1.3,0.1,1.6,0.3L252.2,63z"/>
		<rect x="254.1" y="62.2" fill-rule="evenodd" clip-rule="evenodd" fill="#6F7071" width="0.7" height="7.1"/>
		<path fill-rule="evenodd" clip-rule="evenodd" fill="#6F7071" d="M259.3,62.1c2.1,0,3.2,1.8,3.1,3.7c0,2.2-1,3.7-3.1,3.7v-0.6
			c1.7,0,2.4-1.6,2.4-3.1c0-1.5-0.7-3.1-2.4-3.1V62.1L259.3,62.1z M259.3,61.8L259.3,61.8V61l0.4-0.6h0.8L259.3,61.8L259.3,61.8z
			 M259.3,69.5v-0.6c-1.7,0-2.4-1.6-2.4-3.1c0-1.5,0.7-3.1,2.4-3.1v-0.6c-2.1,0-3.2,1.8-3.1,3.7C256.1,68,257.2,69.5,259.3,69.5
			L259.3,69.5L259.3,69.5z M259.3,61l-0.6,0.9h0.4l0.1-0.1V61L259.3,61z"/>
		<polygon fill-rule="evenodd" clip-rule="evenodd" fill="#6F7071" points="263.7,62.2 264.6,62.2 268.3,68.5 268.3,62.2 
			268.9,62.2 268.9,69.3 268,69.3 264.4,63.2 264.4,69.3 263.7,69.3 		"/>
	</g>
	<g>
		<g>
			<path fill-rule="evenodd" clip-rule="evenodd" fill="#009BDC" d="M40.5,86c1-0.3,2-0.6,3-1c16.5-6,24.2-10.7,25.7-15.9
				c0.1-0.5,0.2-1,0.2-1.5v-1c-0.1-2.6-1.7-5-3.2-6.9C64.8,57.9,63,56,61,53.9c-6.4-6.8-14.5-15.3-15.9-28
				c-0.7-6.3-2.2-10.5-4.5-12.5v3.3c1.1,2.1,2,5.3,2.4,9.4c1.6,13.4,9.8,22.1,16.5,29.2c1.9,2,3.8,3.9,5.2,5.7
				c2.4,3.2,3.2,5.4,2.6,7.5c-1.3,4.4-9,9-24.4,14.6c-0.8,0.3-1.6,0.5-2.3,0.7V86L40.5,86z M31.3,14.8c2.8-2.4,5.3-3.2,7.6-2.4
				c0.6,0.2,1.1,0.6,1.6,1v3.3c-0.7-1.3-1.5-2.1-2.4-2.4c-1.8-0.7-3.9,0.7-5.5,1.9C27.4,20.9,21.3,32,17.5,43.9
				c-4.3,13.5-5,25.7-1.9,33.1c3.6,8.7,12,11,25,6.8V86c-17.2,5.3-24.2-1.4-26.9-8.2c-1.3-3.1-1.9-6.8-2-11.1v-1.8
				c0.1-6.4,1.4-13.8,3.9-21.6C19.5,30.8,25.7,19.6,31.3,14.8L31.3,14.8z"/>
		</g>
		<g>
			<path fill-rule="evenodd" clip-rule="evenodd" fill="#009BDC" d="M39.7,82.6c1.3-0.4,2.6-1,4-1.6c15.5-6.7,22.6-11.6,23.7-16.6
				c0.9-3.5-1.3-6.6-3.3-8.9l-4.6-4.9C53.4,44.5,45.9,37,43.8,25.7c-1-5.1-2.4-8.4-4.1-10.4v3.5c1,1.9,1.8,4.4,2.3,7.3
				c2.1,11.8,10,19.6,16.2,25.9l4.5,4.7c2.6,3,3.5,5.1,3,7.2c-1,4.3-8.2,9.2-22.7,15.5c-1.1,0.4-2.2,0.9-3.3,1.3V82.6L39.7,82.6z
				 M29.2,13.5c1.9-1,3.6-1.8,5.5-1.4c1.6,0.3,3.3,1.2,5,3.2v3.5c-1.4-2.7-3.2-4.4-5.3-4.8c-1.3-0.3-2.7,0.4-4.3,1.2
				c-2.3,1.2-4.4,3.4-6.1,6.4c-3.1,5.2-5.9,12.8-7.9,21.3c-3.3,13.9-3.3,25.3,0.1,32.2c3.8,8,11.8,9.9,23.5,5.6v1.9
				C24.3,88,17.5,82,14.4,75.8c-1.8-3.8-2.5-8.4-2.7-13.1v-2.5c0.1-6.7,1.4-13.2,2.4-17.8c2.1-8.7,5-16.5,8.1-21.9
				C24.3,17.3,26.7,14.9,29.2,13.5L29.2,13.5z"/>
		</g>
		<g>
			<path fill-rule="evenodd" clip-rule="evenodd" fill="#009BDC" d="M38.7,79.3c1.6-0.6,3.3-1.4,5.1-2.3c14.4-7.3,21-12.6,21.8-17.5
				c0.6-3.4-1.6-6.1-3.7-8.4L58,47.3c-5.7-5.4-12.8-12.1-15.5-21.9c-1-3.6-2.4-6.2-3.8-8.2v3.1c0.9,1.5,1.6,3.3,2.2,5.5
				C43.7,36.2,51,43,56.8,48.5l3.9,3.7c2.7,2.8,3.6,4.9,3.3,7c-0.7,4.3-7.2,9.3-20.9,16.3c-1.5,0.8-3,1.5-4.4,2V79.3L38.7,79.3z
				 M27.1,12.4c1.9-0.8,3.8-0.9,5.4-0.2c1.9,0.8,4.2,2.3,6.2,5v3.1c-2.1-3.8-4.7-5.7-6.8-6.6c-1.3-0.5-2.7-0.4-4.1,0.2l-0.1,0.1
				h-0.1c-2.2,0.1-4.3,1.9-6.3,5.5c-2.8,5-5.1,12.9-6.6,22.3C13,51.6,12.2,65,16.7,73c4.1,7.2,11.5,8.7,22,4.5v1.8
				c-13.6,5.3-20.3,0.1-23.5-5.5c-2.7-4.7-3.6-11.2-3.6-17.7c0-5,0.5-10.1,1.3-14.6c1-6.7,3-16.2,6.7-22.9
				C21.9,14.8,24.3,12.7,27.1,12.4L27.1,12.4z"/>
		</g>
		<g>
			<path fill-rule="evenodd" clip-rule="evenodd" fill="#009BDC" d="M37.6,76.3c2-0.8,4.1-1.9,6.4-3.3C57.4,65,63.3,59.5,63.9,54.7
				c0-0.1,0.1-0.2,0.1-0.4v-0.7c-0.2-2.7-2.1-5-4.1-6.8l-3.3-2.9c-5.3-4.7-11.9-10.4-15.3-18.8c-1-2.6-2.2-4.7-3.6-6.4v2.5
				c0.8,1.3,1.6,2.7,2.3,4.4c3.5,8.7,10.2,14.6,15.7,19.4l3.2,2.8c2.8,2.6,3.9,4.6,3.6,6.7c-0.4,4.2-6.4,9.5-19.2,17.2
				c-1.9,1.2-3.8,2.1-5.5,2.9V76.3L37.6,76.3z M25.1,11.3c1.8-0.3,3.6,0,5.2,1c2.3,1.5,5,3.5,7.3,6.4v2.5c-2.4-3.8-5.5-6.1-8.1-7.7
				c-1.3-0.8-2.7-1.1-4.2-0.7h-0.1h-0.1c-2.4-0.6-4.7,1-6.6,4.7c-2.6,5-4.4,13.2-5.3,23.3C12,54.9,13.4,65,17.3,71
				c4.3,6.4,11.1,7.7,20.3,3.6v1.6c-11.8,4.9-18.1,0.5-21.5-4.5c-4.1-6.2-5.6-16.6-4.5-31.1c0.6-7.2,2-17.2,5.4-23.8
				C19.8,11.5,22.9,10.9,25.1,11.3L25.1,11.3z"/>
		</g>
		<g>
			<path fill-rule="evenodd" clip-rule="evenodd" fill="#009BDC" d="M36.3,73.5c2.4-1,5-2.5,7.8-4.4c12.5-8.8,17.9-14.5,18.1-19.2
				c0-0.1,0-0.1,0-0.2c0-3-2.3-5.3-4.6-7.2L55,40.4c-5-3.8-11.1-8.7-15-15.5c-1.1-1.9-2.4-3.6-3.7-5v1.9c1,1.1,1.8,2.4,2.6,3.7
				c4,7.1,10.3,12,15.3,16l2.6,2c3,2.4,4.1,4.3,4.1,6.4C60.7,54,55.3,59.6,43.3,68c-2.4,1.7-4.8,3.1-7,4.1V73.5L36.3,73.5z M14.4,15
				c2.7-5.8,6.2-5.8,8.7-4.7c1.6,0.1,3.3,0.7,4.8,2l1.7,1.4c2.2,1.8,4.5,3.7,6.7,6.1v1.9c-2.3-2.8-5-5-7.5-7l-1.7-1.4
				c-1.4-1.1-2.8-1.7-4.3-1.8h-0.1l-0.1-0.1c-2.8-1.2-5.1,0.1-7,4.1c-2.4,5.1-3.8,13.8-3.8,24.3C11.5,53.4,13.8,63.5,18,69
				c4.3,5.6,10.4,6.7,18.3,3.1v1.4c-10,4.3-15.9,0.7-19.3-3.7c-4.4-5.8-6.7-15.9-6.6-30C10.4,29.1,11.9,20.3,14.4,15L14.4,15z"/>
		</g>
		<g>
			<path fill-rule="evenodd" clip-rule="evenodd" fill="#009BDC" d="M34.6,70.9c2.8-1.2,6-3.1,9.5-6c11.5-9.4,16.4-15.4,16.2-20
				c-0.1-3-2.6-5.2-5-6.8l-2.4-1.6c-4.5-3-10.1-6.8-14.4-12c-1.2-1.5-2.6-2.8-4-4.1v1.4c1.1,1.1,2.2,2.1,3.2,3.4
				c4.4,5.2,10.1,9,14.7,12.1l2.4,1.6c3,2.1,4.4,3.9,4.5,6c0.1,4.1-4.7,10-15.9,19.1c-3.1,2.6-6.1,4.4-8.8,5.7V70.9L34.6,70.9z
				 M15.6,8.7c1.5-0.5,3.1-0.4,5.1,0.5c1.6,0.7,3.2,1.5,4.8,3.1c1.7,1.8,3.6,3.4,5.5,5c1.2,1,2.4,2,3.6,3.1v1.4
				c-1.4-1.3-2.8-2.5-4.3-3.7c-1.9-1.6-3.8-3.3-5.6-5.1c-1.6-1.6-3.2-2.3-4.4-2.9c-1.7-0.7-3.1-0.9-4.3-0.4
				c-1.3,0.4-2.3,1.7-3.2,3.8c-2.4,5.3-3.3,14.5-2.6,25.3c0.6,9.2,2.5,21.6,8.4,28.1c4.2,4.7,9.6,5.7,16.1,2.9v1.1
				c-8.1,3.3-13.5,0.4-16.9-3.3C11.7,61,9.7,48.3,9.1,38.9C8.4,28,9.4,18.6,11.8,13.1C12.8,10.7,14.1,9.3,15.6,8.7L15.6,8.7z"/>
		</g>
		<g>
			<path fill-rule="evenodd" clip-rule="evenodd" fill="#009BDC" d="M37.4,66.4c2.1-1.3,4.4-3.1,6.9-5.5
				c10.1-9.6,14.5-15.7,14.5-20.1c0-0.2-0.1-0.5-0.1-0.7c-0.4-3-3-4.8-5.4-6.2l-3.6-2c-3.9-2.1-8.4-4.4-12.3-7.5v1.1
				c3.8,3,8.1,5.2,11.8,7.3l3.6,1.9c3.2,1.8,4.7,3.5,5,5.5c0.5,4.1-3.8,10.4-14.2,20.2c-2.1,2.1-4.2,3.8-6.2,5V66.4L37.4,66.4z
				 M32.9,68.6v-0.8c1.5-0.6,3-1.3,4.5-2.4v1C35.7,67.4,34.3,68.1,32.9,68.6L32.9,68.6L32.9,68.6z M37.4,24.3v1.1
				c-0.2-0.1-0.4-0.3-0.6-0.4l-3.7-2.7l-0.2-0.1V21l0.7,0.6L37.4,24.3L37.4,24.3L37.4,24.3z M13,6.9L13,6.9
				c-1.6,0.4-2.9,1.8-3.8,4.4C6.9,16.8,6.4,27,7.8,38c1,7.5,3.7,21,10.7,27.7c3.2,3,7.8,5.3,14.3,3v-0.8c-5.2,1.9-9.7,1-13.6-2.7
				c-5.1-4.8-8.8-14.5-10.5-27.2C7.3,27.1,7.8,17,10,11.5c0.9-2.2,2-3.5,3.3-3.8c1.3-0.4,2.8,0,4.7,1.3c1.1,0.7,2.7,1.9,4.4,4
				c3,3.8,6.8,6.5,10.4,9.2V21c-3.4-2.5-6.9-5.1-9.8-8.6c-1.8-2.2-3.5-3.4-4.6-4.2C16.4,6.8,14.6,6.4,13,6.9z"/>
		</g>
		<g>
			<path fill-rule="evenodd" clip-rule="evenodd" fill="#009BDC" d="M31,66.4c3.8-1,8.3-3.7,13.3-9.4C53,47.3,57,40.8,57.1,36.5
				v-0.2C57,35.9,57,35.4,57,35.1c-0.5-2.3-2.4-4-5.8-5.5c-1.8-0.8-4.1-1.6-6.4-2.3C42,26.4,39,25.4,36,24.1c-1.8-0.7-3.5-1.6-5-2.5
				v0.8c1.5,0.8,3,1.6,4.8,2.4c3,1.3,6,2.2,8.7,3.1c2.4,0.8,4.5,1.5,6.4,2.3c3.3,1.4,5,3,5.5,5c0.9,4.1-3,10.7-12.5,21.3
				c-4.5,5-8.8,8.1-12.8,9.2V66.4L31,66.4z M10.8,4.9c2.7-0.4,6.1,2.1,9.8,7.5c2.7,3.7,6,6.7,10.4,9.2v0.8
				c-4.6-2.6-8.1-5.7-10.9-9.6c-3.6-5-6.8-7.5-9.2-7.3c-1.6,0.2-2.9,1.6-3.8,4C5,15.3,5,26,7.3,36.9C9.7,49,14.3,58.5,19.8,63
				c3.5,2.8,7.2,3.7,11.2,2.7v0.7c-4.9,1.2-8.8-0.5-11.6-2.8C13.8,59,9.1,49.3,6.6,37C4.4,26,4.3,15.2,6.5,9.3
				C7.6,6.6,9,5.1,10.8,4.9L10.8,4.9z"/>
		</g>
	</g>
	<path fill-rule="evenodd" clip-rule="evenodd" fill="#6F7071" d="M137.5,33.6h-3c-1,0-1.8,0.8-1.8,1.8v18.7c0,5.5-3.9,9.2-8.6,9.2
		c-4.6,0-8.5-3.8-8.5-9.2V41.1v-5.8c0-1-0.8-1.8-1.8-1.8h-3c-1,0-1.7,0.8-1.7,1.8v18.7c0,9.2,6.4,15.4,14.9,15.4
		c8.6,0,15-6.1,15-15.4V35.4C139.2,34.4,138.4,33.6,137.5,33.6z"/>
	<path fill-rule="evenodd" clip-rule="evenodd" fill="#6F7071" d="M97.7,39.7h3.3c1,0,1.7-0.7,1.7-1.6v-2.8c0-1-0.7-1.7-1.7-1.7
		h-4.4c-8.2,0-17.7,6.3-17.7,17.6c0,11.2,9.5,17.5,17.7,17.5h4.4c1,0,1.7-0.7,1.7-1.6v-2.8c0-1-0.7-1.7-1.7-1.7h-3.3
		c-6.1,0-12.1-3.9-12.1-11.4C85.5,43.7,91.6,39.7,97.7,39.7z"/>
	<path fill-rule="evenodd" clip-rule="evenodd" fill="#6F7071" d="M164.2,39.7c0.9,0,1.6-0.7,1.6-1.6v-2.8c0-1-0.7-1.7-1.6-1.7h-11
		v-8.5c0-1-0.7-1.8-1.7-1.8h-3c-1,0-1.8,0.8-1.8,1.8v5.8v26.6c0,7,3.8,11.3,10.4,11.3h7c0.9,0,1.6-0.7,1.6-1.6v-2.8
		c0-1-0.7-1.7-1.6-1.7h-6.1c-3.3,0-4.9-1.1-4.9-4.4V39.7H164.2z"/>
	<path fill-rule="evenodd" clip-rule="evenodd" fill="#6F7071" d="M178.5,33.6h-2.9c-1,0-1.8,0.8-1.8,1.8V67c0,1,0.8,1.8,1.8,1.8
		h2.9c1,0,1.8-0.8,1.8-1.8V35.4C180.2,34.4,179.4,33.6,178.5,33.6z"/>
</g>
</svg>
